<svg width="1467" height="1224" viewBox="0 0 1467 1224" fill="none" xmlns="http://www.w3.org/2000/svg">
<path d="M817.668 820.12C1004.91 757.203 1127.24 655.158 1165 612H302.013C246.261 643.744 134.118 732.806 131.553 835.101C128.988 937.395 57.455 1014.33 22.0093 1040.01C-76.3212 1293.27 179.569 1251.51 302.013 1115.45C395.881 1043.22 630.429 883.038 817.668 820.12Z" fill="#5F28D3"/>
<path d="M649.332 403.88C462.094 466.797 339.761 568.842 302 612H1164.99C1220.74 580.256 1332.88 491.194 1335.45 388.899C1338.01 286.605 1409.55 209.67 1444.99 183.989C1543.32 -69.2725 1287.43 -27.5079 1164.99 108.552C1071.12 180.779 836.571 340.962 649.332 403.88Z" fill="#5F28D3"/>
</svg>
