<svg width="1139" height="709" viewBox="0 0 1139 709" fill="none" xmlns="http://www.w3.org/2000/svg">
<path d="M220.779 122.722C185.936 151.635 160.487 185.439 135.367 222.749C116.681 250.503 98.6982 279.249 84.8791 309.774C61.1813 362.122 48.0736 419.135 17.1191 468.166C3.22538 490.173 -10.1945 511.521 -22.9295 534.217C-45.9321 575.212 -80.562 605.697 -123.241 625.228C-152.57 638.65 -192.336 654.677 -224.691 641.931C-242.477 634.925 -256.274 622.781 -269.485 609.57" stroke="#5F28D3" stroke-width="123" stroke-linecap="round"/>
<path d="M791.668 208.12C978.906 145.203 1101.24 43.1577 1139 0H276.013C220.261 31.7441 108.118 120.806 105.553 223.101C102.988 325.395 31.455 402.33 -3.99072 428.011C-102.321 681.273 153.569 639.508 276.013 503.448C369.881 431.221 604.429 271.038 791.668 208.12Z" fill="#5F28D3"/>
<path d="M108.035 245.715C89.0456 263.349 69.24 279.658 49.3857 296.203C26.8225 315.006 6.21753 333.682 -18.4692 349.823C-54.3565 373.288 -97.5625 384.091 -134.155 406.669C-142.975 412.112 -147.505 420.612 -144.404 431.154C-142.559 437.426 -130.096 435.377 -125.614 435.33C-104.517 435.107 -84.7397 428.262 -65.2559 420.715C-37.8429 410.095 -10.4582 399.494 17.1191 389.302C18.7585 388.696 44.3067 375.625 45.2101 381.046C46.9705 391.608 20.5899 397.747 14.1771 399.457C-8.88458 405.606 -29.4507 418.25 -51.59 426.788C-80.5275 437.948 -115.396 437.801 -142.316 453.741C-154.768 461.113 -176.997 471.577 -178.854 488.285C-180.681 504.734 -162.422 514.428 -148.2 515.522C-113.916 518.159 -76.3935 501.215 -44.3774 489.993C-19.7949 481.377 8.59107 478.224 34.581 478.035C48.0194 477.938 80.314 470.59 78.9002 491.796C77.7505 509.042 58.1049 522.049 44.0712 528.428C37.5638 531.386 32.3507 536.369 27.0838 541.05C19.2188 548.041 36.8835 546.801 40.6548 545.985C46.6266 544.694 54.4797 542.498 44.8304 550.161C36.7495 556.578 27.392 559.287 18.2579 553.198C5.39911 544.625 -6.82595 543.91 -21.9805 544.752C-36.2823 545.546 -49.6597 548.649 -64.2119 547.883C-81.6813 546.964 -100.552 542.533 -116.883 536.495C-146.506 525.542 -167.747 508.322 -184.073 480.693C-199.501 454.583 -188.015 424.838 -175.437 400.311C-165.506 380.946 -151.307 357.509 -131.877 346.406C-112.658 335.424 -94.2236 331.127 -72.0888 331.127C-58.4222 331.127 -44.7565 331.816 -32.0402 326.002C-20.9613 320.938 -11.8021 313.81 -1.19702 308.066C11.2283 301.336 22.5213 293.987 34.4861 286.808C38.7074 284.275 44.4429 285.077 48.3418 282.348C52.0912 279.723 56.8557 276.637 61.5332 276.464C64.7864 276.343 73.7845 274.832 72.0673 278.267C71.1326 280.136 66.4494 284.412 68.0814 283.107C71.6949 280.216 72.8209 276.988 77.2869 274.755" stroke="#5F28D3" stroke-width="123" stroke-linecap="round"/>
</svg>
