<svg width="1280" height="872" viewBox="0 0 1280 872" fill="none" xmlns="http://www.w3.org/2000/svg">
<path d="M-92.9747 665.177C-73.1702 665.177 -53.8912 600.738 -39.0709 584.907C9.06002 533.494 58.1105 504.362 128.5 488.524C211.793 469.783 294.251 464.795 379.27 464.795C524.576 464.795 669.881 464.795 815.187 464.795C903.023 464.795 1001.3 439.157 1082.95 406.497C1126.45 389.096 1167.55 366.275 1211.26 349.078C1253.97 332.274 1300.31 315.17 1341.34 294.881C1372.87 279.289 1391.96 252.797 1420.43 233.946C1450.83 213.823 1484.03 197.221 1512.71 174.769C1536.46 156.189 1565.17 127.857 1578.63 100.944" stroke="#FFC700" stroke-width="200" stroke-linecap="round"/>
<path d="M-93 714.232C-73.1955 714.232 -53.9165 649.793 -39.0962 633.963C9.03475 582.55 58.0852 553.418 128.474 537.58C211.768 518.839 294.226 513.851 379.244 513.851C524.55 513.851 669.856 513.851 815.162 513.851C902.997 513.851 1001.27 488.213 1082.92 455.553C1126.43 438.152 1167.53 415.331 1211.24 398.133C1253.95 381.33 1300.28 364.226 1341.31 343.937C1372.84 328.345 1391.93 301.852 1420.41 283.002C1450.81 262.879 1484 246.277 1512.69 223.825C1536.43 205.245 1565.15 176.913 1578.6 150" stroke="#5F28D3" stroke-width="200" stroke-linecap="round"/>
<path d="M-93 771.232C-73.1955 771.232 -53.9165 706.793 -39.0962 690.963C9.03475 639.55 58.0852 610.418 128.474 594.58C211.768 575.839 294.226 570.851 379.244 570.851C524.55 570.851 669.856 570.851 815.162 570.851C902.997 570.851 1001.27 545.213 1082.92 512.553C1126.43 495.152 1167.53 472.331 1211.24 455.133C1253.95 438.33 1300.28 421.226 1341.31 400.937C1372.84 385.345 1391.93 358.852 1420.41 340.002C1450.81 319.879 1484 303.277 1512.69 280.825C1536.43 262.245 1565.15 233.913 1578.6 207" stroke="#4110A9" stroke-width="200" stroke-linecap="round"/>
</svg>
